<?xml version="1.0" encoding="utf-8"?>
<!-- Generator: Adobe Illustrator 23.0.6, SVG Export Plug-In . SVG Version: 6.00 Build 0)  -->
<svg version="1.1" id="Layer_1" xmlns="http://www.w3.org/2000/svg" xmlns:xlink="http://www.w3.org/1999/xlink" x="0px" y="0px"
	 viewBox="0 0 576 512" style="enable-background:new 0 0 576 512;" xml:space="preserve">
<style type="text/css">
	.st0{fill:#878787;}
	.st1{fill:none;stroke:#595959;stroke-width:45;stroke-linecap:round;stroke-linejoin:round;stroke-miterlimit:10;}
	.st2{fill:#595959;}
</style>
<path class="st0" d="M-643,418.9c0-13.3,10.7-24,24-24h45.5c22,0,41.5,12.8,50.6,32h411c26.3,0,45.5,25,38.6,50.4l-41,152.3
	c-8.5,31.4-37,53.3-69.5,53.3h-288.5l5.4,28.5c2.2,11.3,12.1,19.5,23.6,19.5H-155c13.3,0,24,10.7,24,24s-10.7,24-24,24h-288.3
	c-34.6,0-64.3-24.6-70.7-58.5l-51.6-271c-0.7-3.8-4-6.5-7.9-6.5H-619C-632.3,442.9-643,432.2-643,418.9z M-515,858.9
	c0-26.5,21.5-48,48-48s48,21.5,48,48s-21.5,48-48,48S-515,885.4-515,858.9L-515,858.9z M-179,810.9c26.5,0,48,21.5,48,48
	s-21.5,48-48,48l0,0c-26.5,0-48-21.5-48-48S-205.5,810.9-179,810.9z M-391,554.9c0,11,9,20,20,20h44v44c0,11,9,20,20,20s20-9,20-20
	v-44h44c11,0,20-9,20-20s-9-20-20-20h-44v-44c0-11-9-20-20-20s-20,9-20,20v44h-44C-382,534.9-391,543.9-391,554.9z"/>
<polyline class="st1" points="42,66.5 126.6,66.5 200.7,345.2 442.3,345.2 527.4,112.4 222.7,112.4 "/>
<circle class="st2" cx="199.8" cy="442.2" r="47.3"/>
<circle class="st2" cx="457.9" cy="442.2" r="47.3"/>
</svg>
