<svg width="26" height="26" viewBox="0 0 26 26" fill="none" xmlns="http://www.w3.org/2000/svg">
<path d="M13 25.3242L11.115 23.5531C8.92667 21.4868 7.1175 19.7043 5.6875 18.2057C4.2575 16.7071 3.12 15.3617 2.275 14.1696C1.43 12.9775 0.839583 11.8819 0.50375 10.8828C0.167917 9.88371 0 8.86191 0 7.81741C0 5.68298 0.6825 3.90051 2.0475 2.47C3.4125 1.03948 5.11333 0.324219 7.15 0.324219C8.27667 0.324219 9.34917 0.573992 10.3675 1.07354C11.3858 1.57308 12.2633 2.27699 13 3.18525C13.7367 2.27699 14.6142 1.57308 15.6325 1.07354C16.6508 0.573992 17.7233 0.324219 18.85 0.324219C20.8867 0.324219 22.5875 1.03948 23.9525 2.47C25.3175 3.90051 26 5.68298 26 7.81741C26 8.86191 25.8321 9.88371 25.4962 10.8828C25.1604 11.8819 24.57 12.9775 23.725 14.1696C22.88 15.3617 21.7425 16.7071 20.3125 18.2057C18.8825 19.7043 17.0733 21.4868 14.885 23.5531L13 25.3242ZM13 21.6457C15.08 19.693 16.7917 18.0184 18.135 16.6219C19.4783 15.2254 20.54 14.0106 21.32 12.9775C22.1 11.9443 22.6417 11.0247 22.945 10.2186C23.2483 9.41255 23.4 8.61214 23.4 7.81741C23.4 6.45501 22.9667 5.31968 22.1 4.41141C21.2333 3.50315 20.15 3.04901 18.85 3.04901C17.8317 3.04901 16.8892 3.34988 16.0225 3.9516C15.1558 4.55333 14.56 5.31968 14.235 6.25065H11.765C11.44 5.31968 10.8442 4.55333 9.9775 3.9516C9.11083 3.34988 8.16833 3.04901 7.15 3.04901C5.85 3.04901 4.76667 3.50315 3.9 4.41141C3.03333 5.31968 2.6 6.45501 2.6 7.81741C2.6 8.61214 2.75167 9.41255 3.055 10.2186C3.35833 11.0247 3.9 11.9443 4.68 12.9775C5.46 14.0106 6.52167 15.2254 7.865 16.6219C9.20833 18.0184 10.92 19.693 13 21.6457Z" fill="#A7A7A7"/>
</svg>
