<?xml version="1.0" encoding="utf-8"?>
<!-- Generator: Adobe Illustrator 23.0.6, SVG Export Plug-In . SVG Version: 6.00 Build 0)  -->
<svg version="1.1" id="Layer_1" xmlns="http://www.w3.org/2000/svg" xmlns:xlink="http://www.w3.org/1999/xlink" x="0px" y="0px"
	 viewBox="0 0 699.7 748.1" style="enable-background:new 0 0 699.7 748.1;" xml:space="preserve">
<style type="text/css">
	.st0{fill:#5584B0;}
</style>
<g>
	<path class="st0" d="M221.2,170.2h-32.7c-21.3,0-38.6-17.3-38.6-38.6v-93c0-21.3,17.3-38.6,38.6-38.6l32.7,0
		c21.3,0,38.6,17.3,38.6,38.6v93C259.8,152.9,242.5,170.2,221.2,170.2z"/>
</g>
<g>
	<path class="st0" d="M509.9,170.2h-32.7c-21.3,0-38.6-17.3-38.6-38.6v-93c0-21.3,17.3-38.6,38.6-38.6l32.7,0
		c21.3,0,38.6,17.3,38.6,38.6v93C548.5,152.9,531.2,170.2,509.9,170.2z"/>
</g>
<g>
	<path class="st0" d="M620.5,748.1H79.2C35.5,748.1,0,709,0,660.8V206.4C0,158.2,35.5,119,79.2,119h541.4
		c43.7,0,79.2,39.2,79.2,87.4v454.4C699.7,709,664.2,748.1,620.5,748.1z M79.2,179c-13.7,0-24.8,12.3-24.8,27.4v454.4
		c0,15.1,11.1,27.4,24.8,27.4h541.4c13.7,0,24.8-12.3,24.8-27.4V206.4c0-15.1-11.1-27.4-24.8-27.4H79.2z"/>
</g>
<g>
	<rect x="32" y="155.7" class="st0" width="622.1" height="175.4"/>
</g>
<g>
	<g>
		<path class="st0" d="M234.5,545.5l30.7-3.7c1,7.8,3.6,13.8,7.9,17.9c4.3,4.1,9.5,6.2,15.6,6.2c6.5,0,12-2.5,16.5-7.4
			c4.5-5,6.7-11.7,6.7-20.1c0-8-2.1-14.3-6.4-18.9c-4.3-4.7-9.5-7-15.7-7c-4.1,0-8.9,0.8-14.6,2.4l3.5-25.8
			c8.6,0.2,15.1-1.6,19.6-5.6c4.5-3.9,6.8-9.2,6.8-15.7c0-5.6-1.7-10-5-13.3c-3.3-3.3-7.7-5-13.2-5c-5.4,0-10,1.9-13.9,5.6
			c-3.8,3.8-6.2,9.2-7,16.5l-29.2-5c2-10,5.1-18,9.2-24c4.1-6,9.8-10.7,17.1-14.1c7.3-3.4,15.5-5.1,24.6-5.1c15.6,0,28,5,37.4,14.9
			c7.7,8.1,11.6,17.3,11.6,27.5c0,14.5-7.9,26.1-23.8,34.7c9.5,2,17,6.6,22.7,13.6c5.7,7.1,8.5,15.6,8.5,25.6
			c0,14.5-5.3,26.9-15.9,37.1c-10.6,10.2-23.8,15.3-39.6,15.3c-15,0-27.4-4.3-37.2-12.9C241.8,570.7,236.1,559.4,234.5,545.5z"/>
	</g>
	<g>
		<path class="st0" d="M417.7,423.4c16,0,28.5,5.7,37.6,17.1c10.8,13.5,16.1,36,16.1,67.3c0,31.3-5.4,53.8-16.2,67.4
			c-8.9,11.3-21.4,16.9-37.4,16.9c-16.1,0-29.1-6.2-38.9-18.6c-9.9-12.4-14.8-34.4-14.8-66.2c0-31.1,5.4-53.5,16.2-67.2
			C389.2,429,401.6,423.4,417.7,423.4z M417.7,449.7c-3.8,0-7.3,1.2-10.3,3.7c-3,2.4-5.3,6.8-7,13.1c-2.2,8.2-3.3,22-3.3,41.4
			c0,19.4,1,32.7,2.9,40c2,7.3,4.4,12.1,7.4,14.5c3,2.4,6.4,3.6,10.2,3.6s7.3-1.2,10.3-3.7c3-2.4,5.3-6.8,7-13.1
			c2.2-8.1,3.3-21.9,3.3-41.3c0-19.4-1-32.7-2.9-40c-2-7.3-4.4-12.1-7.4-14.6C424.9,450.9,421.5,449.7,417.7,449.7z"/>
	</g>
</g>
</svg>
