<?xml version="1.0" encoding="utf-8"?>
<!-- Generator: Adobe Illustrator 23.0.6, SVG Export Plug-In . SVG Version: 6.00 Build 0)  -->
<svg version="1.1" id="Layer_1" xmlns="http://www.w3.org/2000/svg" xmlns:xlink="http://www.w3.org/1999/xlink" x="0px" y="0px"
	 viewBox="0 0 28 28" style="enable-background:new 0 0 28 28;" xml:space="preserve">
<style type="text/css">
	.st0{fill:#606060;}
</style>
<path class="st0" d="M14,14c-1.9,0-3.6-0.7-4.9-2.1C7.7,10.6,7,8.9,7,7s0.7-3.6,2.1-4.9C10.4,0.7,12.1,0,14,0s3.6,0.7,4.9,2.1
	C20.3,3.4,21,5.1,21,7s-0.7,3.6-2.1,4.9C17.6,13.3,15.9,14,14,14z M0,28v-4.9c0-1,0.3-1.9,0.8-2.7c0.5-0.8,1.2-1.5,2-1.9
	c1.8-0.9,3.6-1.6,5.5-2c1.9-0.5,3.8-0.7,5.7-0.7s3.8,0.2,5.7,0.7c1.9,0.5,3.7,1.1,5.5,2c0.8,0.4,1.5,1.1,2,1.9
	c0.5,0.8,0.8,1.7,0.8,2.7V28H0z M3.5,24.5h21v-1.4c0-0.3-0.1-0.6-0.2-0.9c-0.2-0.3-0.4-0.5-0.6-0.6c-1.6-0.8-3.2-1.4-4.8-1.8
	c-1.6-0.4-3.2-0.6-4.9-0.6s-3.3,0.2-4.9,0.6c-1.6,0.4-3.2,1-4.8,1.8c-0.3,0.1-0.5,0.4-0.6,0.6c-0.2,0.3-0.2,0.6-0.2,0.9V24.5z
	 M14,10.5c1,0,1.8-0.3,2.5-1c0.7-0.7,1-1.5,1-2.5s-0.3-1.8-1-2.5c-0.7-0.7-1.5-1-2.5-1s-1.8,0.3-2.5,1c-0.7,0.7-1,1.5-1,2.5
	s0.3,1.8,1,2.5S13,10.5,14,10.5z"/>
</svg>
