<?xml version="1.0" encoding="utf-8"?>
<!-- Generator: Adobe Illustrator 23.0.6, SVG Export Plug-In . SVG Version: 6.00 Build 0)  -->
<svg version="1.1" id="Layer_1" xmlns="http://www.w3.org/2000/svg" xmlns:xlink="http://www.w3.org/1999/xlink" x="0px" y="0px"
	 viewBox="0 0 24 24" style="enable-background:new 0 0 24 24;" xml:space="preserve">
<style type="text/css">
	.st0{fill:#FFFFFF;}
</style>
<path class="st0" d="M6,21v-2l1-1H4c-0.5,0-1-0.2-1.4-0.6S2,16.5,2,16V5c0-0.5,0.2-1,0.6-1.4S3.5,3,4,3h16c0.6,0,1,0.2,1.4,0.6
	S22,4.4,22,5v11c0,0.6-0.2,1-0.6,1.4S20.6,18,20,18h-3l1,1v2H6z M4,16h16V5H4V16z M4,16V5V16z"/>
<g>
	<path class="st0" d="M5.3,10l3.4-1.4v1.1l-2.2,0.8l0,0v0.1l0-0.1l2.2,0.8v1.1L5.3,11V10z"/>
	<path class="st0" d="M11.8,13.1h-1l1.5-5.6h1L11.8,13.1z"/>
	<path class="st0" d="M15.3,12.4v-1.1l2.2-0.8l0,0.1v-0.1l0,0l-2.2-0.8V8.6l3.4,1.4V11L15.3,12.4z"/>
</g>
</svg>
