<svg width="113" height="120" viewBox="0 0 113 120" fill="none" xmlns="http://www.w3.org/2000/svg">
<g opacity="0.9" clip-path="url(#clip0_101_621)">
<path d="M111.32 75.7033C110.236 74.4037 108.773 73.5373 107.309 73.429C104.816 73.2124 102.323 73.9705 100.318 75.4867L78.5309 86.642C77.2844 85.0716 75.4959 84.8008 73.9242 84.5842H73.8158C72.5151 84.4218 70.3472 84.2593 67.6374 84.2052L51.5952 83.9885C49.9151 83.9885 48.235 83.6636 46.6091 83.068L40.6475 81.3351C40.2139 81.2268 39.7803 81.0644 39.3468 80.9019C39.2384 80.8477 39.0758 80.7936 38.9132 80.7395C36.2034 79.7647 28.0197 76.7864 18.2101 84.4218L0 98.9885L2.05947 101.48L20.2695 86.9127C28.6158 80.4145 35.553 82.9055 37.8293 83.7178C38.046 83.7719 38.2086 83.8802 38.3712 83.9344C38.859 84.0968 39.2926 84.2593 39.7803 84.3676L45.5794 86.0463C47.5304 86.7503 49.5357 87.1293 51.5952 87.1835L67.4748 87.4001C67.8 87.4001 71.4312 87.5084 73.3281 87.7792H73.4364C74.7914 87.9958 75.5501 88.1041 75.9837 88.6997C76.4173 89.2954 76.634 89.8911 76.5257 90.5409C76.3089 91.6239 75.2791 92.8153 73.4906 93.9524C71.9189 94.9813 70.0221 95.5228 68.071 95.5228H50.1319V98.7178H68.1252C70.7266 98.7178 73.2197 98.0138 75.3333 96.6059C77.8806 94.9272 79.3981 93.086 79.7233 91.0824C79.8316 90.595 79.8316 90.1077 79.7775 89.6203L101.944 78.3026L102.161 78.1402C103.624 77.003 105.304 76.4615 107.038 76.6239C107.58 76.6781 108.285 77.1113 108.827 77.7611C109.586 78.6275 109.911 79.7647 109.748 80.8478C109.586 82.2557 108.881 83.5553 107.743 84.5842L75.0623 107.22L65.3069 113.664C63.7894 114.638 62.0551 115.18 60.2667 115.18H60.2125C56.8523 115.18 52.4081 114.476 47.0427 113.068L33.1683 110.306C32.3554 110.144 24.9305 108.736 17.0719 116.913L16.1506 117.887L18.5352 120.054L19.4566 119.079C25.5266 112.689 30.8921 113.122 32.1928 113.339L33.7645 113.664V113.609L46.2839 116.1C51.9204 117.508 56.5813 118.267 60.2125 118.267H60.2667C62.7055 118.267 65.0902 117.563 67.1496 116.209L76.9592 109.765L109.748 87.0752L109.857 86.9669C111.645 85.3965 112.729 83.3387 113 81.1185C113.217 79.1691 112.621 77.2737 111.32 75.7033Z" fill="white"/>
<path d="M9.26761 68.1223C9.59279 68.0682 44.1702 61.1909 52.7875 73.5375C52.7875 73.5375 52.7875 73.5375 52.8417 73.5916C52.8959 73.6999 53.0043 73.7541 53.0585 73.8624C53.1127 73.9165 53.1127 73.9165 53.1669 73.9707C53.2211 74.0248 53.3295 74.079 53.3837 74.1331C53.4379 74.1331 53.4379 74.1873 53.4921 74.1873C53.6005 74.2415 53.7089 74.2956 53.7631 74.2956H53.8172C53.8714 74.2956 53.8714 74.2956 53.9256 74.2956C54.034 74.2956 54.1966 74.3498 54.305 74.3498C54.4134 74.3498 54.576 74.3498 54.6844 74.2956C54.7386 74.2956 54.7386 74.2956 54.7928 74.2956H54.847C54.9554 74.2415 55.0638 74.2415 55.118 74.1873C55.1722 74.1873 55.1722 74.1331 55.2264 74.1331C55.3348 74.079 55.389 74.0248 55.4431 73.9707C55.4973 73.9165 55.4973 73.9165 55.5515 73.8624C55.6599 73.8082 55.7141 73.6999 55.7683 73.5916C55.7683 73.5916 55.7683 73.5916 55.8225 73.5375C64.3856 61.2451 98.9631 68.0682 99.3424 68.1223C100.047 68.2848 100.752 68.014 101.185 67.4725C101.619 66.931 101.727 66.1729 101.456 65.523L87.5818 35.1981C87.3108 34.6025 86.7688 34.2234 86.1726 34.1151C71.7021 31.8407 61.2964 38.2306 56.3103 42.292V24.801C59.7247 24.7469 63.0849 23.9346 66.0657 22.3642C72.2441 19.2234 81.024 12.7794 77.9348 2.5447C77.9348 2.5447 60.375 -0.487793 54.3592 19.3859C54.3592 19.3859 51.8662 4.65661 33.8729 6.33531C33.8729 6.33531 31.5966 23.8263 50.7822 24.8552C51.1074 24.8552 51.4326 24.8552 51.7036 24.8552H52.4623V42.4003C47.5846 38.3389 37.1247 31.7866 22.4916 34.1151C21.8412 34.2234 21.3535 34.6025 21.0825 35.1981L7.09974 65.5772C6.82876 66.227 6.88296 66.931 7.37073 67.5266C7.8585 68.1223 8.56305 68.2848 9.26761 68.1223ZM56.4187 47.2739C58.6407 44.9996 68.9381 35.5772 84.5467 37.635L94.5189 59.3498C76.5256 48.8443 58.5324 62.2739 56.3103 64.0609L56.4187 47.2739ZM24.1717 37.635C39.7261 35.6313 50.0777 45.0537 52.2997 47.3281L52.4081 64.9815L52.3539 64.3317C52.3539 64.3317 33.4393 48.4653 14.3079 59.1873L24.1717 37.635Z" fill="white"/>
</g>
<defs>
<clipPath id="clip0_101_621">
<rect width="113" height="120" fill="white"/>
</clipPath>
</defs>
</svg>
