<?xml version="1.0" encoding="utf-8"?>
<!-- Generator: Adobe Illustrator 23.0.6, SVG Export Plug-In . SVG Version: 6.00 Build 0)  -->
<svg version="1.1" id="Layer_1" xmlns="http://www.w3.org/2000/svg" xmlns:xlink="http://www.w3.org/1999/xlink" x="0px" y="0px"
	 viewBox="0 0 24 24" style="enable-background:new 0 0 24 24;" xml:space="preserve">
<style type="text/css">
	.st0{fill:#FFFFFF;}
</style>
<path class="st0" d="M4,15c-0.8,0-1.5-0.3-2.1-0.9C1.3,13.5,1,12.8,1,12s0.3-1.5,0.9-2.1S3.2,9,4,9V7c0-0.5,0.2-1,0.6-1.4S5.5,5,6,5
	h3c0-0.8,0.3-1.5,0.9-2.1C10.5,2.3,11.2,2,12,2s1.5,0.3,2.1,0.9S15,4.2,15,5h3c0.6,0,1,0.2,1.4,0.6S20,6.4,20,7v2
	c0.8,0,1.5,0.3,2.1,0.9c0.6,0.6,0.9,1.3,0.9,2.1s-0.3,1.5-0.9,2.1C21.5,14.7,20.8,15,20,15v4c0,0.6-0.2,1-0.6,1.4S18.6,21,18,21H6
	c-0.5,0-1-0.2-1.4-0.6S4,19.5,4,19V15z M9,13c0.4,0,0.8-0.1,1.1-0.4c0.3-0.3,0.4-0.6,0.4-1.1c0-0.4-0.1-0.8-0.4-1.1
	C9.8,10.1,9.4,10,9,10s-0.8,0.1-1.1,0.4c-0.3,0.3-0.4,0.6-0.4,1.1c0,0.4,0.1,0.8,0.4,1.1C8.2,12.9,8.6,13,9,13z M15,13
	c0.4,0,0.8-0.1,1.1-0.4c0.3-0.3,0.4-0.6,0.4-1.1c0-0.4-0.1-0.8-0.4-1.1C15.8,10.1,15.4,10,15,10s-0.8,0.1-1.1,0.4s-0.4,0.6-0.4,1.1
	c0,0.4,0.1,0.8,0.4,1.1C14.2,12.9,14.6,13,15,13z M8,17h8v-2H8V17z M6,19h12V7H6V19z"/>
</svg>
