<?xml version="1.0" encoding="utf-8"?>
<!-- Generator: Adobe Illustrator 23.0.6, SVG Export Plug-In . SVG Version: 6.00 Build 0)  -->
<svg version="1.1" id="Layer_1" xmlns="http://www.w3.org/2000/svg" xmlns:xlink="http://www.w3.org/1999/xlink" x="0px" y="0px"
	 viewBox="0 0 512 512" style="enable-background:new 0 0 512 512;" xml:space="preserve">
<style type="text/css">
	.st0{fill:#565656;}
</style>
<title></title>
<g>
	<path class="st0" d="M349.1,25.7H162.9c-75.7,0-137.2,61.5-137.2,137.2V349c0,75.7,61.5,137.2,137.2,137.2H349
		c75.7,0,137.2-61.5,137.2-137.2V162.9C486.3,87.3,424.7,25.7,349.1,25.7z M439.9,349.1c0,50.2-40.7,90.9-90.9,90.9H162.9
		c-50.2,0-90.9-40.7-90.9-90.9V162.9c0-50.2,40.7-90.9,90.9-90.9H349c50.2,0,90.9,40.7,90.9,90.9V349.1L439.9,349.1z"/>
	<path class="st0" d="M256,136.9c-65.7,0-119.1,53.4-119.1,119.1S190.3,375.1,256,375.1S375.1,321.7,375.1,256
		S321.7,136.9,256,136.9z M256,328.8c-40.2,0-72.8-32.6-72.8-72.8s32.6-72.8,72.8-72.8s72.8,32.6,72.8,72.8S296.2,328.8,256,328.8z"
		/>
	<circle class="st0" cx="375.3" cy="137.8" r="28.5"/>
</g>
</svg>
