<?xml version="1.0" encoding="utf-8"?>
<!-- Generator: Adobe Illustrator 23.0.6, SVG Export Plug-In . SVG Version: 6.00 Build 0)  -->
<svg version="1.1" id="Layer_1" xmlns="http://www.w3.org/2000/svg" xmlns:xlink="http://www.w3.org/1999/xlink" x="0px" y="0px"
	 viewBox="0 0 512 512" style="enable-background:new 0 0 512 512;" xml:space="preserve">
<style type="text/css">
	.st0{fill:#565656;}
</style>
<title></title>
<g>
	<polygon class="st0" points="188,235.3 222.6,235.3 205.3,183 	"/>
	<path class="st0" d="M256,19.7C114.6,19.7,0,110.2,0,221.9c0,71.8,47.4,134.9,118.8,170.7l-24.1,91.7c-0.5,1.8-0.1,3.8,1,5.3
		c2,2.9,6,3.6,8.9,1.6l101.2-71c16.6,2.6,33.3,3.9,50.1,3.9c141.4,0,256-90.5,256-202.2C512,110.2,397.4,19.7,256,19.7z
		 M127.2,270.6c0,6.7-5.4,12.2-12.2,12.2s-12.2-5.4-12.2-12.2v-89.8h-25c-6.7,0-12.2-5.4-12.2-12.2c0-6.7,5.4-12.2,12.2-12.2h74.3
		c6.7,0,12.2,5.4,12.2,12.2c0,6.7-5.4,12.2-12.2,12.2h-25L127.2,270.6L127.2,270.6z M249.9,282.2c-6.3,2.3-13.3-1.1-15.5-7.4
		l-5.9-17.8c-0.7,0.1-1.5,0.2-2.2,0.2h-49l-5.8,17.6c-2.4,6.2-9.3,9.3-15.5,7.1c-6.3-2.3-9.6-9.2-7.3-15.6l36.5-97.7
		c1.9-5.1,6-9.2,11.1-11.1c9.8-3.7,20.7,1.3,24.4,11.1l36.5,97.7c0,0.1,0.1,0.2,0.1,0.4C259.5,273,256.2,280,249.9,282.2z
		 M328.7,281.7h-44.2c-8.1,0-14.7-6.6-14.7-14.7v-98.4c0-6.7,5.4-12.2,12.2-12.2s12.2,5.4,12.2,12.2v88.7h34.6l0,0
		c6.7,0,12.2,5.4,12.2,12.2S335.4,281.7,328.7,281.7z M437.9,279.6c-5.5,4.3-13.5,3.3-17.8-2.2l-35.7-48l-8.2,8v33.1
		c0,7.1-5.8,12.9-12.9,12.9s-12.9-5.8-12.9-12.9V168.6c0-7.1,5.8-12.9,12.9-12.9s12.9,5.8,12.9,12.9v38.7l44.9-46.7
		c4.7-4.5,12.2-4.4,16.8,0.3c4.7,4.7,4.6,12.3-0.1,17l-36,34.8l38.3,49.1C444.4,267.4,443.4,275.3,437.9,279.6z"/>
</g>
</svg>
