<?xml version="1.0" encoding="utf-8"?>
<!-- Generator: Adobe Illustrator 23.0.6, SVG Export Plug-In . SVG Version: 6.00 Build 0)  -->
<svg version="1.1" id="Layer_1" xmlns="http://www.w3.org/2000/svg" xmlns:xlink="http://www.w3.org/1999/xlink" x="0px" y="0px"
	 viewBox="0 0 24 24" style="enable-background:new 0 0 24 24;" xml:space="preserve">
<style type="text/css">
	.st0{fill:#FFFFFF;}
</style>
<path class="st0" d="M5.6,20.4c-0.6,0-1.1-0.2-1.6-0.6c-0.4-0.4-0.6-1-0.6-1.6V4.5c0-0.5,0.2-0.8,0.7-1s0.8-0.1,1.2,0.2L7.6,6
	L6.2,7.3L6.9,8l1.4-1.3l2.6,2.6l-1.4,1.3l0.7,0.7l1.4-1.3l2.6,2.6L12.9,14l0.7,0.7l1.4-1.4l2.6,2.6l-1.3,1.4L17,18l1.3-1.4l2,2
	c0.3,0.3,0.4,0.7,0.2,1.2c-0.2,0.5-0.5,0.7-1,0.7L5.6,20.4L5.6,20.4z M6.4,17.4h8.3L6.4,9.1V17.4z"/>
</svg>
