<?xml version="1.0" encoding="utf-8"?>
<!-- Generator: Adobe Illustrator 23.0.6, SVG Export Plug-In . SVG Version: 6.00 Build 0)  -->
<svg version="1.1" id="Layer_1" xmlns="http://www.w3.org/2000/svg" xmlns:xlink="http://www.w3.org/1999/xlink" x="0px" y="0px"
	 viewBox="0 0 512 512" style="enable-background:new 0 0 512 512;" xml:space="preserve">
<style type="text/css">
	.st0{fill:#FFFFFF;}
</style>
<title></title>
<g>
	<path class="st0" d="M252.2,156.6c-18.4-7.7-50.2-24.3-85.8-20.2S44.2,183.3,69.3,316.9s90.6,170,110.1,173.2
		c19.4,3.2,46.9-10.5,58.3-13.8c11.3-3.2,34-11.3,69.6,4.9s56.7,7.3,76.1-8.9c19.4-16.2,51.8-63.9,63.9-106.8
		c0,0-57.5-20.2-61.5-80.1s28.3-87.4,48.6-103.6c0,0-11.3-27.5-55.8-42.1s-81.7,4.9-91.5,9.7C277.3,154.2,264.6,161.8,252.2,156.6z"
		/>
	<path class="st0" d="M256,125.9c0,0-5.4-93.1,94.1-104.4C350.1,21.4,351.3,128.3,256,125.9z"/>
</g>
</svg>
