<?xml version="1.0" encoding="utf-8"?>
<!-- Generator: Adobe Illustrator 23.0.6, SVG Export Plug-In . SVG Version: 6.00 Build 0)  -->
<svg version="1.1" id="Layer_1" xmlns="http://www.w3.org/2000/svg" xmlns:xlink="http://www.w3.org/1999/xlink" x="0px" y="0px"
	 viewBox="0 0 512 512" style="enable-background:new 0 0 512 512;" xml:space="preserve">
<style type="text/css">
	.st0{fill:#FFFFFF;}
</style>
<title></title>
<g>
	<g>
		<path class="st0" d="M82.2,61.9c-0.7,1.8-1.2,4-1.2,6.5v167.3c0,11.2,0,29.5,0,40.6v167.3c0,2.5,0.4,4.7,1.2,6.5L276.4,256
			L82.2,61.9z"/>
		<path class="st0" d="M289,243.3l47.7-47.7l-58-33.5c-9.7-5.6-25.5-14.7-35.2-20.3L111,65.3L289,243.3z"/>
	</g>
	<g>
		<path class="st0" d="M352.8,307.1l70.9-40.9c9.7-5.6,9.7-14.7,0-20.3L352.8,205l-51.1,51L352.8,307.1z"/>
		<path class="st0" d="M289,268.7l-178,178l132.5-76.5c9.7-5.6,25.5-14.7,35.2-20.3l58-33.5L289,268.7z"/>
	</g>
</g>
</svg>
