<?xml version="1.0" encoding="utf-8"?>
<!-- Generator: Adobe Illustrator 23.0.6, SVG Export Plug-In . SVG Version: 6.00 Build 0)  -->
<svg version="1.1" id="Layer_1" xmlns="http://www.w3.org/2000/svg" xmlns:xlink="http://www.w3.org/1999/xlink" x="0px" y="0px"
	 viewBox="0 0 3911 1150" style="enable-background:new 0 0 3911 1150;" xml:space="preserve">
<style type="text/css">
	.st0{fill:#F1F0EF;}
	.st1{fill:#FFFFFF;}
</style>
<g>
	
		<image style="overflow:visible;opacity:0.27;" width="589" height="349" xlink:href="1B4DB618.png"  transform="matrix(1 0 0 1 1638.7192 41.6885)">
	</image>
	<g>
		<path class="st0" d="M1701.9,334.2H2164c21.5,0,38.9-17.4,38.9-38.9V73c0-21.5-17.4-38.9-38.9-38.9h-462.1
			c-21.5,0-38.9,17.4-38.9,38.9v222.2C1663,316.7,1680.4,334.2,1701.9,334.2z"/>
	</g>
</g>
<g>
	
		<image style="overflow:visible;opacity:0.27;" width="589" height="349" xlink:href="1B4DB619.png"  transform="matrix(1 0 0 1 18.7193 41.6885)">
	</image>
	<g>
		<path class="st0" d="M82.1,334.2h462.1c21.5,0,38.9-17.4,38.9-38.9V73c0-21.5-17.4-38.9-38.9-38.9H82.1
			c-21.5,0-38.9,17.4-38.9,38.9v222.2C43.2,316.7,60.6,334.2,82.1,334.2z"/>
	</g>
</g>
<g>
	
		<image style="overflow:visible;opacity:0.27;" width="589" height="349" xlink:href="1B4DB61F.png"  transform="matrix(1 0 0 1 1098.7192 41.6885)">
	</image>
	<g>
		<path class="st0" d="M1162,334.2H1624c21.5,0,38.9-17.4,38.9-38.9V73c0-21.5-17.4-38.9-38.9-38.9H1162
			c-21.5,0-38.9,17.4-38.9,38.9v222.2C1123,316.7,1140.5,334.2,1162,334.2z"/>
	</g>
</g>
<g>
	
		<image style="overflow:visible;" width="3969" height="1226" xlink:href="1B4DB61A.png"  transform="matrix(1 0 0 1 -28.9008 -37.9316)">
	</image>
	<g>
		<path class="st1" d="M3828.5,192H1123V73c0-21.5-17.4-38.9-38.9-38.9H622c-21.5,0-38.9,17.4-38.9,38.9V192H82.5
			c-21.7,0-39.3,17.6-39.3,39.3v845.4c0,21.7,17.6,39.3,39.3,39.3h3746.1c21.7,0,39.3-17.6,39.3-39.3V231.2
			C3867.8,209.5,3850.2,192,3828.5,192z"/>
	</g>
</g>
</svg>
