<?xml version="1.0" encoding="utf-8"?>
<!-- Generator: Adobe Illustrator 23.0.6, SVG Export Plug-In . SVG Version: 6.00 Build 0)  -->
<svg version="1.1" id="Layer_1" xmlns="http://www.w3.org/2000/svg" xmlns:xlink="http://www.w3.org/1999/xlink" x="0px" y="0px"
	 viewBox="0 0 3969 1226" style="enable-background:new 0 0 3969 1226;" xml:space="preserve">
<style type="text/css">
	.st0{fill:#F1F0EF;}
	.st1{fill:#FFFFFF;}
</style>
<g>
	
		<image style="overflow:visible;opacity:0.27;" width="589" height="349" xlink:href="613F61D1.png"  transform="matrix(1 0 0 1 1667.6201 79.6201)">
	</image>
	<g>
		<path class="st0" d="M1730.8,372h462.1c21.5,0,38.9-17.4,38.9-38.9V110.8c0-21.5-17.4-38.9-38.9-38.9h-462.1
			c-21.5,0-38.9,17.4-38.9,38.9v222.2C1691.9,354.6,1709.3,372,1730.8,372z"/>
	</g>
</g>
<g>
	
		<image style="overflow:visible;opacity:0.27;" width="589" height="349" xlink:href="613F61D3.png"  transform="matrix(1 0 0 1 1127.6201 79.6201)">
	</image>
	<g>
		<path class="st0" d="M1190.9,372h462.1c21.5,0,38.9-17.4,38.9-38.9V110.8c0-21.5-17.4-38.9-38.9-38.9h-462.1
			c-21.5,0-38.9,17.4-38.9,38.9v222.2C1151.9,354.6,1169.4,372,1190.9,372z"/>
	</g>
</g>
<g>
	
		<image style="overflow:visible;opacity:0.27;" width="589" height="349" xlink:href="613F61D6.png"  transform="matrix(1 0 0 1 587.6201 79.6201)">
	</image>
	<g>
		<path class="st0" d="M650.9,372H1113c21.5,0,38.9-17.4,38.9-38.9V110.8c0-21.5-17.4-38.9-38.9-38.9H650.9
			c-21.5,0-38.9,17.4-38.9,38.9v222.2C612,354.6,629.4,372,650.9,372z"/>
	</g>
</g>
<g>
	<image style="overflow:visible;" width="3969" height="1226" xlink:href="613F61D7.png" >
	</image>
	<g>
		<path class="st1" d="M3857.4,229.8H612V110.8c0-21.5-17.4-38.9-38.9-38.9H111c-21.5,0-38.9,17.4-38.9,38.9v158.2v64v781.4
			c0,21.7,17.6,39.3,39.3,39.3h3746.1c21.7,0,39.3-17.6,39.3-39.3V269.1C3896.7,247.4,3879.1,229.8,3857.4,229.8z"/>
	</g>
</g>
</svg>
