<?xml version="1.0" encoding="utf-8"?>
<!-- Generator: Adobe Illustrator 23.0.6, SVG Export Plug-In . SVG Version: 6.00 Build 0)  -->
<svg version="1.1" id="Layer_1" xmlns="http://www.w3.org/2000/svg" xmlns:xlink="http://www.w3.org/1999/xlink" x="0px" y="0px"
	 viewBox="0 0 3969 1226" style="enable-background:new 0 0 3969 1226;" xml:space="preserve">
<style type="text/css">
	.st0{fill:#F1F0EF;}
	.st1{fill:#FFFFFF;}
</style>
<g>
	
		<image style="overflow:visible;opacity:0.27;" width="589" height="349" xlink:href="8F6A5EAA.png"  transform="matrix(1 0 0 1 1127.6201 79.6201)">
	</image>
	<g>
		<path class="st0" d="M1191,372.3H1653c21.5,0,38.9-17.4,38.9-38.9V111.1c0-21.5-17.4-38.9-38.9-38.9H1191
			c-21.5,0-38.9,17.4-38.9,38.9v222.2C1152,354.8,1169.5,372.3,1191,372.3z"/>
	</g>
</g>
<g>
	
		<image style="overflow:visible;opacity:0.27;" width="589" height="349" xlink:href="8F6A5EAE.png"  transform="matrix(1 0 0 1 587.6201 79.6201)">
	</image>
	<g>
		<path class="st0" d="M651.1,372.3h462.1c21.5,0,38.9-17.4,38.9-38.9V111.1c0-21.5-17.4-38.9-38.9-38.9H651.1
			c-21.5,0-38.9,17.4-38.9,38.9v222.2C612.1,354.8,629.5,372.3,651.1,372.3z"/>
	</g>
</g>
<g>
	
		<image style="overflow:visible;opacity:0.27;" width="589" height="349" xlink:href="8F6A5EA9.png"  transform="matrix(1 0 0 1 47.6201 79.6201)">
	</image>
	<g>
		<path class="st0" d="M111.1,372.3h462.1c21.5,0,38.9-17.4,38.9-38.9V111.1c0-21.5-17.4-38.9-38.9-38.9H111.1
			c-21.5,0-38.9,17.4-38.9,38.9v222.2C72.2,354.8,89.6,372.3,111.1,372.3z"/>
	</g>
</g>
<g>
	<image style="overflow:visible;" width="3969" height="1226" xlink:href="8F6A5EAB.png" >
	</image>
	<g>
		<path class="st1" d="M3857.5,230H2231.9V111.1c0-21.5-17.4-38.9-38.9-38.9h-462.1c-21.5,0-38.9,17.4-38.9,38.9V230H111.5
			c-21.7,0-39.3,17.6-39.3,39.3v845.4c0,21.7,17.6,39.3,39.3,39.3h3746.1c21.7,0,39.3-17.6,39.3-39.3V269.3
			C3896.8,247.6,3879.2,230,3857.5,230z"/>
	</g>
</g>
</svg>
