<?xml version="1.0" encoding="utf-8"?>
<!-- Generator: Adobe Illustrator 23.0.6, SVG Export Plug-In . SVG Version: 6.00 Build 0)  -->
<svg version="1.1" id="Layer_1" xmlns="http://www.w3.org/2000/svg" xmlns:xlink="http://www.w3.org/1999/xlink" x="0px" y="0px"
	 viewBox="0 0 3969 1226" style="enable-background:new 0 0 3969 1226;" xml:space="preserve">
<style type="text/css">
	.st0{fill:#F1F0EF;}
	.st1{fill:#FFFFFF;}
</style>
<g>
	
		<image style="overflow:visible;opacity:0.27;" width="589" height="349" xlink:href="D55C0A66.png"  transform="matrix(1 0 0 1 587.6201 79.6201)">
	</image>
	<g>
		<path class="st0" d="M650.7,372.4h462.1c21.5,0,38.9-17.4,38.9-38.9V111.2c0-21.5-17.4-38.9-38.9-38.9H650.7
			c-21.5,0-38.9,17.4-38.9,38.9v222.2C611.8,355,629.2,372.4,650.7,372.4z"/>
	</g>
</g>
<g>
	
		<image style="overflow:visible;opacity:0.27;" width="589" height="349" xlink:href="D55C0A65.png"  transform="matrix(1 0 0 1 47.6201 79.6201)">
	</image>
	<g>
		<path class="st0" d="M110.8,372.4h462.1c21.5,0,38.9-17.4,38.9-38.9V111.2c0-21.5-17.4-38.9-38.9-38.9H110.8
			c-21.5,0-38.9,17.4-38.9,38.9v222.2C71.9,355,89.3,372.4,110.8,372.4z"/>
	</g>
</g>
<g>
	
		<image style="overflow:visible;opacity:0.27;" width="589" height="349" xlink:href="D55C0A62.png"  transform="matrix(1 0 0 1 1667.6201 79.6201)">
	</image>
	<g>
		<path class="st0" d="M1730.6,372.4h462.1c21.5,0,38.9-17.4,38.9-38.9V111.2c0-21.5-17.4-38.9-38.9-38.9h-462.1
			c-21.5,0-38.9,17.4-38.9,38.9v222.2C1691.7,355,1709.1,372.4,1730.6,372.4z"/>
	</g>
</g>
<g>
	<image style="overflow:visible;" width="3969" height="1226" xlink:href="D55C0A6D.png" >
	</image>
	<g>
		<path class="st1" d="M3857.2,230.2H1691.7V111.2c0-21.5-17.4-38.9-38.9-38.9h-462.1c-21.5,0-38.9,17.4-38.9,38.9v118.9H111.1
			c-21.7,0-39.3,17.6-39.3,39.3v845.4c0,21.7,17.6,39.3,39.3,39.3h3746.1c21.7,0,39.3-17.6,39.3-39.3V269.5
			C3896.5,247.8,3878.9,230.2,3857.2,230.2z"/>
	</g>
</g>
</svg>
