<?xml version="1.0" encoding="utf-8"?>
<!-- Generator: Adobe Illustrator 23.0.6, SVG Export Plug-In . SVG Version: 6.00 Build 0)  -->
<svg version="1.1" id="Layer_1" xmlns="http://www.w3.org/2000/svg" xmlns:xlink="http://www.w3.org/1999/xlink" x="0px" y="0px"
	 viewBox="0 0 530 91.9" style="enable-background:new 0 0 530 91.9;" xml:space="preserve">
<style type="text/css">
	.st0{fill:#336082;}
	.st1{fill:url(#SVGID_1_);}
	.st2{fill:#FFFFFF;}
	.st3{fill:none;stroke:#000000;stroke-width:16;stroke-miterlimit:10;}
	.st4{fill:none;stroke:#000000;stroke-width:15.139;stroke-miterlimit:10;}
	.st5{fill:#5094B4;}
</style>
<path class="st0" d="M-276.8-411.4h29.3c5.3,0,9.7,0.8,13.4,2.4c3.7,1.6,6.4,3.8,8.3,6.6c1.8,2.8,2.8,6.1,2.8,9.9
	c0,2.8-0.6,5.3-1.7,7.4c-1.1,2.2-2.7,4-4.7,5.4s-4.3,2.4-6.9,3v0.7c2.8,0.1,5.5,0.9,7.9,2.4c2.5,1.5,4.5,3.6,5.9,6.2
	c1.5,2.7,2.2,5.8,2.2,9.3c0,3.9-1,7.4-2.9,10.5c-1.9,3-4.8,5.4-8.6,7.2c-3.8,1.7-8.4,2.6-13.8,2.6h-31.2V-411.4z M-244-381.7
	c1.7-0.8,3-1.9,4-3.3c1-1.4,1.4-3.1,1.4-5c0-1.8-0.4-3.4-1.3-4.8c-0.8-1.3-2.1-2.4-3.7-3.1c-1.6-0.7-3.6-1.1-5.9-1.1h-12v18.5h11.7
	C-247.6-380.5-245.7-380.9-244-381.7z M-241.5-351.5c1.9-0.8,3.3-1.8,4.1-3.2c0.9-1.4,1.3-3,1.3-4.9c0-2-0.5-3.9-1.5-5.5
	c-1-1.6-2.4-2.9-4.2-3.7c-1.8-0.9-4-1.3-6.5-1.3h-13.3v19.8h12.9C-245.8-350.3-243.4-350.7-241.5-351.5z"/>
<path class="st0" d="M-185.7-361.2l-4.9,0.4c-2.7,0.2-4.8,0.9-6.3,2.2c-1.5,1.2-2.3,2.9-2.3,5c0,1.4,0.3,2.5,1,3.5
	c0.7,0.9,1.7,1.7,2.9,2.2c1.3,0.5,2.7,0.8,4.3,0.8c2.3,0,4.3-0.4,6-1.3c1.8-0.9,3.1-2.1,4.1-3.7c1-1.6,1.5-3.3,1.5-5.2l-0.1-17.8
	c0-1.6-0.3-2.9-1-4c-0.7-1.1-1.7-1.9-3-2.5c-1.3-0.6-2.9-0.8-4.8-0.8c-2.5,0-4.6,0.5-6.2,1.6c-1.6,1.1-2.6,2.6-3,4.5h-14.3
	c0.3-3.3,1.5-6.2,3.4-8.8c1.9-2.6,4.7-4.6,8.1-6.1c3.5-1.5,7.6-2.2,12.3-2.2c4.3,0,8.2,0.7,11.7,2c3.5,1.3,6.4,3.4,8.5,6.2
	c2.2,2.8,3.2,6.3,3.2,10.5v37.2h-14.3v-7.6h-0.4c-0.9,1.7-2.1,3.2-3.6,4.5c-1.5,1.3-3.3,2.3-5.4,3c-2.1,0.7-4.5,1.1-7.2,1.1
	c-3.6,0-6.7-0.6-9.5-1.9c-2.7-1.3-4.9-3.1-6.5-5.6s-2.4-5.5-2.4-8.9c0-5.8,1.9-9.9,5.7-12.6c3.8-2.6,8.8-4.1,14.8-4.5
	c1-0.1,4.2-0.3,9.4-0.5l5-0.2l0.1,9.3C-179.9-361.6-182.3-361.5-185.7-361.2z"/>
<path class="st0" d="M-142.4-340.2c-4.1-2.3-7.3-5.6-9.5-9.9c-2.2-4.3-3.3-9.3-3.3-15c0-5.7,1.1-10.7,3.3-15c2.2-4.3,5.3-7.7,9.4-10
	c4-2.4,8.7-3.6,14-3.6c5,0,9.4,1,13.3,3.1c3.9,2.1,7,5.2,9.2,9.4s3.4,9.3,3.4,15.4v4.2h-46.5v-9.4h32.3c0-2.2-0.5-4.2-1.5-6
	c-1-1.7-2.3-3.1-4.1-4.1c-1.7-1-3.7-1.5-5.9-1.5c-2.3,0-4.4,0.5-6.3,1.6c-1.8,1.1-3.3,2.5-4.3,4.4c-1,1.9-1.6,3.9-1.6,6.1v8.8
	c0,2.7,0.5,5.2,1.6,7.2c1.1,2.1,2.5,3.6,4.4,4.7s4.1,1.6,6.7,1.6c1.7,0,3.2-0.2,4.6-0.7s2.6-1.1,3.5-1.9c1-0.8,1.7-1.7,2.2-2.8h14.3
	c-0.7,3.4-2.2,6.3-4.4,8.8c-2.2,2.5-5.1,4.5-8.6,5.8c-3.5,1.4-7.5,2.1-11.9,2.1C-133.4-336.7-138.2-337.9-142.4-340.2z"/>
<path class="st0" d="M-82.7-340.3c-4.1-2.4-7.3-5.7-9.5-10c-2.2-4.3-3.3-9.3-3.3-14.9c0-5.7,1.1-10.7,3.3-15c2.2-4.3,5.4-7.6,9.5-10
	c4.1-2.4,8.9-3.6,14.4-3.6s10.2,1.2,14.4,3.6c4.1,2.4,7.3,5.7,9.4,10c2.2,4.3,3.3,9.3,3.3,15c0,5.6-1.1,10.6-3.3,14.9
	c-2.2,4.3-5.3,7.6-9.4,10s-8.9,3.6-14.4,3.6S-78.6-337.9-82.7-340.3z M-61.8-350.5c1.7-1.5,3.1-3.5,3.9-6c0.9-2.6,1.3-5.5,1.3-8.7
	c0-3.3-0.4-6.2-1.3-8.7s-2.2-4.5-3.9-6c-1.7-1.5-3.9-2.2-6.4-2.2c-2.6,0-4.8,0.7-6.6,2.2c-1.8,1.5-3.2,3.4-4.1,6
	c-0.9,2.5-1.4,5.4-1.4,8.8c0,3.3,0.5,6.2,1.4,8.7s2.3,4.5,4.1,6c1.8,1.5,4,2.2,6.6,2.2C-65.7-348.4-63.5-349.1-61.8-350.5z"/>
<path class="st0" d="M-21.3-340.3c-4.1-2.4-7.3-5.7-9.5-10c-2.2-4.3-3.3-9.3-3.3-14.9c0-5.7,1.1-10.7,3.3-15c2.2-4.3,5.4-7.6,9.5-10
	c4.1-2.4,8.9-3.6,14.4-3.6s10.2,1.2,14.4,3.6c4.1,2.4,7.3,5.7,9.4,10c2.2,4.3,3.3,9.3,3.3,15c0,5.6-1.1,10.6-3.3,14.9
	c-2.2,4.3-5.3,7.6-9.4,10s-8.9,3.6-14.4,3.6C-12.4-336.7-17.2-337.9-21.3-340.3z M-0.4-350.5c1.7-1.5,3.1-3.5,3.9-6
	c0.9-2.6,1.3-5.5,1.3-8.7c0-3.3-0.4-6.2-1.3-8.7s-2.2-4.5-3.9-6c-1.7-1.5-3.9-2.2-6.4-2.2c-2.6,0-4.8,0.7-6.6,2.2
	c-1.8,1.5-3.2,3.4-4.1,6c-0.9,2.5-1.4,5.4-1.4,8.8c0,3.3,0.5,6.2,1.4,8.7s2.3,4.5,4.1,6c1.8,1.5,4,2.2,6.6,2.2
	C-4.3-348.4-2.1-349.1-0.4-350.5z"/>
<path class="st0" d="M38.5-340.2c-3.4-2.2-6.1-5.4-8-9.7c-1.9-4.3-2.9-9.4-2.9-15.4c0-6.1,1-11.3,3-15.6c2-4.3,4.7-7.5,8.1-9.6
	c3.4-2.1,7.2-3.2,11.4-3.2c2.9,0,5.4,0.5,7.5,1.4c2.1,1,3.8,2.2,5,3.6s2.3,3.1,3.2,4.9h0.5v-27.6h15v73.6H66.5v-8.8h-0.7
	c-0.9,1.8-2,3.4-3.2,4.8s-2.9,2.5-5,3.5c-2.1,0.9-4.6,1.4-7.4,1.4C45.8-336.9,41.9-338,38.5-340.2z M61.1-351
	c1.8-1.4,3.1-3.3,4.1-5.8c0.9-2.5,1.4-5.4,1.4-8.7c0-3.3-0.5-6.2-1.4-8.6c-0.9-2.4-2.3-4.3-4-5.6c-1.8-1.3-3.9-2-6.4-2
	s-4.6,0.7-6.4,2s-3.1,3.2-4,5.7c-0.9,2.4-1.3,5.3-1.3,8.5c0,3.2,0.4,6.1,1.3,8.6s2.2,4.4,4,5.8s3.9,2.1,6.4,2.1
	C57.1-348.9,59.3-349.6,61.1-351z"/>
<path class="st0" d="M118.5-361.2l-4.9,0.4c-2.7,0.2-4.8,0.9-6.3,2.2c-1.5,1.2-2.3,2.9-2.3,5c0,1.4,0.3,2.5,1,3.5
	c0.7,0.9,1.7,1.7,2.9,2.2c1.3,0.5,2.7,0.8,4.3,0.8c2.3,0,4.3-0.4,6-1.3c1.8-0.9,3.1-2.1,4.1-3.7c1-1.6,1.5-3.3,1.5-5.2l0.1-18.1
	c0-1.6-0.3-2.9-1-4s-1.7-1.9-3-2.5s-2.9-0.8-4.8-0.8c-2.5,0-4.6,0.5-6.2,1.6c-1.6,1.1-2.6,2.6-3,4.5H92.6c0.3-3.3,1.5-6.2,3.4-8.8
	s4.7-4.6,8.1-6.1c3.5-1.5,7.6-2.2,12.3-2.2c4.3,0,8.2,0.7,11.7,2c3.5,1.3,6.4,3.4,8.5,6.2c2.2,2.8,3.2,6.3,3.2,10.5v37.2h-14.3v-7.6
	h-0.4c-0.9,1.7-2.1,3.2-3.6,4.5c-1.5,1.3-3.3,2.3-5.4,3c-2.1,0.7-4.5,1.1-7.2,1.1c-3.6,0-6.7-0.6-9.5-1.9c-2.7-1.3-4.9-3.1-6.5-5.6
	s-2.4-5.5-2.4-8.9c0-5.8,1.9-9.9,5.7-12.6c3.8-2.6,8.8-4.1,14.8-4.5c1-0.1,4.2-0.3,9.4-0.5l5-0.2l0.1,9.3
	C124.3-361.6,121.9-361.5,118.5-361.2z"/>
<g>
	
		<linearGradient id="SVGID_1_" gradientUnits="userSpaceOnUse" x1="-390.0962" y1="-284.0328" x2="-298.2961" y2="-284.0328" gradientTransform="matrix(1 0 0 -1 0 -658.1102)">
		<stop  offset="0" style="stop-color:#5585B1"/>
		<stop  offset="1" style="stop-color:#43AFB9"/>
	</linearGradient>
	<circle class="st1" cx="-344.2" cy="-374.1" r="45.9"/>
	<g>
		<rect x="-338.4" y="-352.1" class="st2" width="6.7" height="24"/>
	</g>
	<path class="st2" d="M-344.3-373c9,6.6,9.6,20.9,9.6,20.9s-13.9,3.6-22.8-3c-8.9-6.6-11.3-18.9-9.6-20.9
		C-365.4-378-353.3-379.6-344.3-373z"/>
	<path class="st2" d="M-325.9-373.1c-9.1,6.7-9.8,21.2-9.8,21.2s14.1,3.6,23.2-3.1c9.1-6.7,11.5-19.2,9.8-21.2
		C-304.4-378.1-316.8-379.8-325.9-373.1z"/>
</g>
<image style="overflow:visible;" width="1300" height="1242" xlink:href="4B21CF40.jpg"  transform="matrix(0.2646 0 0 0.2646 -270.0913 129.8997)">
</image>
<path class="st3" d="M-189.2,309.2c-9,9.4-14,13.5-26.4,13.5c-12.2,0-23.6-10.7-23.6-24.5s11.2-25,25-25c6.1,0,11.9,2.5,16,5.8
	c4.1,3.4,21.3,21.2,21.3,21.2"/>
<path class="st3" d="M-167.8,287.7c9-9.4,14-13.5,26.4-13.5c12.2,0,23.6,10.7,23.6,24.5s-11.2,25-25,25c-6.1,0-11.9-2.5-16-5.8
	c-4.1-3.4-21.3-21.2-21.3-21.2"/>
<path class="st4" d="M-194.8,280.1"/>
<path class="st0" d="M23.5,90.1V4.9h16.4v85.3H23.5z M35.6,90.1V76.7h22.2c4,0,7.1-1.2,9.3-3.6c2.2-2.4,3.3-5.3,3.3-8.6
	c0-2.3-0.5-4.3-1.5-6.2c-1-1.9-2.4-3.3-4.3-4.4c-1.9-1.1-4.2-1.6-6.9-1.6H35.6V38.9H56c3.4,0,6.1-0.8,8.2-2.5
	c2.1-1.7,3.1-4.2,3.1-7.6c0-3.5-1-6.1-3.1-7.8c-2.1-1.7-4.8-2.5-8.2-2.5H35.6V4.9h22.3c5.7,0,10.4,1,14.2,3.1
	c3.8,2.1,6.7,4.8,8.7,8.1c1.9,3.4,2.9,7,2.9,11c0,4.9-1.5,9-4.4,12.6c-3,3.5-7.3,6.1-12.9,7.8l0.7-5.3c6.3,1.8,11.2,4.7,14.6,8.8
	c3.4,4.1,5.2,9,5.2,14.7c0,4.5-1.1,8.6-3.3,12.3c-2.2,3.7-5.5,6.6-9.7,8.9c-4.2,2.2-9.4,3.3-15.5,3.3H35.6z"/>
<path class="st0" d="M122.8,91.4c-5.3,0-10.1-1.3-14.4-4c-4.3-2.7-7.6-6.3-10.1-10.9c-2.4-4.6-3.6-9.8-3.6-15.5
	c0-5.8,1.2-11,3.6-15.6c2.4-4.6,5.8-8.2,10.1-10.9c4.3-2.7,9.1-4,14.4-4c4.2,0,8,0.8,11.3,2.5c3.3,1.7,6,4.1,7.9,7.1
	c2,3,3.1,6.4,3.2,10.2v21.1c-0.2,3.9-1.2,7.3-3.2,10.3c-2,3-4.6,5.4-7.9,7.1C130.8,90.5,127,91.4,122.8,91.4z M125.7,76.7
	c4.4,0,8-1.5,10.8-4.4c2.7-3,4.1-6.8,4.1-11.5c0-3.1-0.6-5.8-1.9-8.2c-1.3-2.4-3-4.2-5.2-5.6c-2.2-1.3-4.8-2-7.8-2
	c-2.9,0-5.5,0.7-7.7,2c-2.2,1.3-4,3.2-5.2,5.6c-1.3,2.4-1.9,5.1-1.9,8.2c0,3.2,0.6,5.9,1.9,8.3c1.3,2.4,3,4.2,5.2,5.6
	C120.3,76,122.8,76.7,125.7,76.7z M139.8,90.1V74.4l2.5-14.3L139.8,46V31.6h15.8v58.6H139.8z"/>
<path class="st0" d="M197.7,91.4c-6.1,0-11.6-1.3-16.4-3.9c-4.8-2.6-8.5-6.2-11.3-10.9c-2.8-4.6-4.2-9.9-4.2-15.8
	c0-5.8,1.4-11,4.1-15.6c2.7-4.6,6.4-8.2,11.1-10.9c4.7-2.7,9.9-4.1,15.6-4.1c5.7,0,10.7,1.3,15,3.8c4.3,2.5,7.7,6,10.2,10.4
	c2.5,4.4,3.7,9.4,3.7,15c0,1.1-0.1,2.1-0.2,3.2c-0.1,1.1-0.3,2.3-0.7,3.7l-49.2,0.1V54.6l41.8-0.1l-6.4,5c-0.2-3.5-0.8-6.4-1.9-8.7
	c-1.1-2.3-2.7-4.1-4.7-5.4c-2.1-1.3-4.6-1.9-7.6-1.9c-3.2,0-5.9,0.7-8.2,2.1c-2.3,1.4-4.1,3.4-5.4,5.9c-1.3,2.5-1.9,5.6-1.9,9
	c0,3.6,0.7,6.7,2,9.3c1.3,2.6,3.3,4.7,5.8,6.1c2.5,1.4,5.4,2.1,8.7,2.1c3,0,5.7-0.5,8.1-1.5c2.4-1,4.5-2.5,6.3-4.5l9.3,9.3
	c-2.8,3.3-6.3,5.8-10.4,7.5C206.8,90.5,202.4,91.4,197.7,91.4z"/>
<path class="st0" d="M398,91.4c-5.4,0-10.3-1.3-14.6-4c-4.3-2.7-7.7-6.3-10.1-10.9c-2.5-4.6-3.7-9.8-3.7-15.5c0-5.8,1.2-11,3.7-15.6
	c2.5-4.6,5.8-8.2,10.1-10.9c4.2-2.7,9.1-4,14.6-4c4.2,0,8,0.8,11.3,2.5c3.4,1.7,6.1,4.1,8.1,7.1c2.1,3,3.2,6.4,3.3,10.2v20.9
	c-0.2,3.8-1.3,7.2-3.3,10.3c-2,3.1-4.7,5.5-8.1,7.3C406,90.5,402.2,91.4,398,91.4z M400.7,76.7c3,0,5.6-0.7,7.8-2
	c2.2-1.3,4-3.2,5.2-5.6c1.3-2.4,1.9-5.2,1.9-8.3c0-3.1-0.6-5.8-1.9-8.2c-1.3-2.4-3-4.2-5.2-5.6c-2.2-1.3-4.8-2-7.7-2
	c-3,0-5.6,0.7-7.8,2.1c-2.2,1.4-4,3.2-5.2,5.6c-1.3,2.3-1.9,5.1-1.9,8.1c0,3.2,0.6,5.9,1.9,8.3c1.3,2.4,3,4.2,5.3,5.6
	C395.3,76,397.8,76.7,400.7,76.7z M430.5,90.1h-15.8V74.4l2.5-14.3L414.6,46V2.5h15.9V90.1z"/>
<path class="st0" d="M469.1,91.4c-5.3,0-10.1-1.3-14.4-4c-4.3-2.7-7.6-6.3-10.1-10.9c-2.4-4.6-3.6-9.8-3.6-15.5
	c0-5.8,1.2-11,3.6-15.6c2.4-4.6,5.8-8.2,10.1-10.9c4.3-2.7,9.1-4,14.4-4c4.2,0,8,0.8,11.3,2.5c3.3,1.7,6,4.1,7.9,7.1
	c2,3,3.1,6.4,3.2,10.2v21.1c-0.2,3.9-1.2,7.3-3.2,10.3c-2,3-4.6,5.4-7.9,7.1C477,90.5,473.3,91.4,469.1,91.4z M472,76.7
	c4.4,0,8-1.5,10.8-4.4c2.7-3,4.1-6.8,4.1-11.5c0-3.1-0.6-5.8-1.9-8.2c-1.3-2.4-3-4.2-5.2-5.6c-2.2-1.3-4.8-2-7.8-2
	c-2.9,0-5.5,0.7-7.7,2c-2.2,1.3-4,3.2-5.2,5.6c-1.3,2.4-1.9,5.1-1.9,8.2c0,3.2,0.6,5.9,1.9,8.3c1.3,2.4,3,4.2,5.2,5.6
	C466.5,76,469.1,76.7,472,76.7z M486,90.1V74.4l2.5-14.3L486,46V31.6h15.8v58.6H486z"/>
<text transform="matrix(1 0 0 1 -289.1647 -221.7785)" style="font-family:'Outfit-SemiBold'; font-size:104.2708px;">Baeooda</text>
<path class="st5" d="M331,32.2c-14.7,0-21.4,5.5-30,14l11.8,12c7.6-7.4,10.2-9.2,18.2-9.2c6.2,0,13.1,5.2,13.1,12.6
	c0,7.2-6.5,13-14.4,13c-3.3,0-6.9-1.2-9.6-3.3c-2-1.5-9-8.1-14.8-13.7l0,0c-2.7-2.6-16.3-15.8-20.2-18.8c-5.6-4.3-12.8-6.7-19.8-6.7
	c-17.2,0-31.3,13.4-31.3,29.9c0,16,13.7,29.5,30,29.5c14.7,0,21.4-5.5,30-14l-11.8-12c-7.6,7.4-10.2,9.2-18.2,9.2
	c-6.2,0-13.1-5.2-13.1-12.6c0-7.2,6.5-13,14.4-13c3.3,0,6.9,1.2,9.5,3.3c2,1.5,9,8.1,14.8,13.7l0,0c2.7,2.6,16.3,15.8,20.2,18.8
	c5.6,4.3,12.8,6.7,19.8,6.7c17.2,0,31.3-13.4,31.3-29.9C361,45.6,347.2,32.2,331,32.2z"/>
<path d="M33.9-183.4c-14.4,0-20.8,5.5-29.5,14.7l10.1,9.7c7.9-8.3,10.9-10.4,19.4-10.4c7,0,14.8,6.5,14.8,15.7
	c0,8.9-7.2,16.1-16.1,16.1c-3.6,0-7.5-1.4-10.4-3.8c-2-1.7-9.2-8.9-15.1-14.9l0,0c-1.7-1.7-16.3-16.9-20.4-20.2
	c-5.4-4.4-12.5-7-19.3-7c-16.6,0-30.2,13.5-30.2,30.2c0,16.1,13.2,29.7,28.9,29.7c14.4,0,20.8-5.5,29.5-14.7l-10.1-9.7
	c-7.9,8.3-10.9,10.4-19.4,10.4c-7,0-14.8-6.5-14.8-15.7c0-8.9,7.2-16.1,16.1-16.1c3.6,0,7.5,1.4,10.4,3.8c2,1.7,9.2,8.9,15.1,14.9
	l0,0c1.7,1.7,16.3,16.9,20.4,20.2c5.4,4.4,12.5,7,19.3,7c16.6,0,30.2-13.5,30.2-30.2C62.8-169.8,49.6-183.4,33.9-183.4z"/>
<circle class="st5" cx="352.1" cy="-123.5" r="57.2"/>
<path class="st2" d="M375.7-144.4c-10.3,0-15.1,3.9-21.2,9.9l8.3,8.5c5.4-5.2,7.2-6.5,12.9-6.5c4.4,0,9.3,3.7,9.3,8.9
	c0,5.1-4.6,9.2-10.2,9.2c-2.3,0-4.9-0.9-6.7-2.3c-1.4-1.1-6.3-5.7-10.4-9.6l0,0c-1.9-1.8-11.5-11.1-14.3-13.3c-3.9-3-9-4.8-14-4.8
	c-12.2,0-22,9.4-22,21.1c0,11.3,9.7,20.8,21.1,20.8c10.3,0,15.1-3.9,21.2-9.9l-8.3-8.5c-5.4,5.2-7.2,6.5-12.9,6.5
	c-4.4,0-9.3-3.7-9.3-8.9c0-5.1,4.6-9.2,10.2-9.2c2.3,0,4.9,0.9,6.7,2.3c1.4,1.1,6.3,5.7,10.4,9.6l0,0c1.9,1.8,11.5,11.1,14.3,13.3
	c3.9,3,9,4.8,14,4.8c12.2,0,22-9.4,22-21.1C396.9-134.9,387.2-144.4,375.7-144.4z"/>
<circle class="st2" cx="228.5" cy="-123.5" r="57.2"/>
<path class="st5" d="M252.1-144.4c-10.3,0-15.1,3.9-21.2,9.9l8.3,8.5c5.4-5.2,7.2-6.5,12.9-6.5c4.4,0,9.3,3.7,9.3,8.9
	c0,5.1-4.6,9.2-10.2,9.2c-2.3,0-4.9-0.9-6.7-2.3c-1.4-1.1-6.3-5.7-10.4-9.6l0,0c-1.9-1.8-11.5-11.1-14.3-13.3c-3.9-3-9-4.8-14-4.8
	c-12.2,0-22,9.4-22,21.1c0,11.3,9.7,20.8,21.1,20.8c10.3,0,15.1-3.9,21.2-9.9l-8.3-8.5c-5.4,5.2-7.2,6.5-12.9,6.5
	c-4.4,0-9.3-3.7-9.3-8.9c0-5.1,4.6-9.2,10.2-9.2c2.3,0,4.9,0.9,6.7,2.3c1.4,1.1,6.3,5.7,10.4,9.6l0,0c1.9,1.8,11.5,11.1,14.3,13.3
	c3.9,3,9,4.8,14,4.8c12.2,0,22-9.4,22-21.1C273.2-134.9,263.5-144.4,252.1-144.4z"/>
<path class="st2" d="M512.1-72.4h-57.9c-13.9,0-25.2-11.3-25.2-25.2v-57.9c0-13.9,11.3-25.2,25.2-25.2h57.9
	c13.9,0,25.2,11.3,25.2,25.2v57.9C537.3-83.8,526-72.4,512.1-72.4z"/>
<path class="st0" d="M506.8-144.4c-10.3,0-15.1,3.9-21.2,9.9l8.3,8.5c5.4-5.2,7.2-6.5,12.9-6.5c4.4,0,9.3,3.7,9.3,8.9
	c0,5.1-4.6,9.2-10.2,9.2c-2.3,0-4.9-0.9-6.7-2.3c-1.4-1.1-6.3-5.7-10.4-9.6l0,0c-1.9-1.8-11.5-11.1-14.3-13.3c-3.9-3-9-4.8-14-4.8
	c-12.2,0-22,9.4-22,21.1c0,11.3,9.7,20.8,21.1,20.8c10.3,0,15.1-3.9,21.2-9.9l-8.3-8.5c-5.4,5.2-7.2,6.5-12.9,6.5
	c-4.4,0-9.3-3.7-9.3-8.9c0-5.1,4.6-9.2,10.2-9.2c2.3,0,4.9,0.9,6.7,2.3c1.4,1.1,6.3,5.7,10.4,9.6l0,0c1.9,1.8,11.5,11.1,14.3,13.3
	c3.9,3,9,4.8,14,4.8c12.2,0,22-9.4,22-21.1C527.9-134.9,518.2-144.4,506.8-144.4z"/>
<path class="st2" d="M634.3-72.4h-57.9c-13.9,0-25.2-11.3-25.2-25.2v-57.9c0-13.9,11.3-25.2,25.2-25.2h57.9
	c13.9,0,25.2,11.3,25.2,25.2v57.9C659.5-83.8,648.1-72.4,634.3-72.4z"/>
<path class="st5" d="M628.9-144.4c-10.3,0-15.1,3.9-21.2,9.9l8.3,8.5c5.4-5.2,7.2-6.5,12.9-6.5c4.4,0,9.3,3.7,9.3,8.9
	c0,5.1-4.6,9.2-10.2,9.2c-2.3,0-4.9-0.9-6.7-2.3c-1.4-1.1-6.3-5.7-10.4-9.6l0,0c-1.9-1.8-11.5-11.1-14.3-13.3c-3.9-3-9-4.8-14-4.8
	c-12.2,0-22,9.4-22,21.1c0,11.3,9.7,20.8,21.1,20.8c10.3,0,15.1-3.9,21.2-9.9l-8.3-8.5c-5.4,5.2-7.2,6.5-12.9,6.5
	c-4.4,0-9.3-3.7-9.3-8.9c0-5.1,4.6-9.2,10.2-9.2c2.3,0,4.9,0.9,6.7,2.3c1.4,1.1,6.3,5.7,10.4,9.6l0,0c1.9,1.8,11.5,11.1,14.3,13.3
	c3.9,3,9,4.8,14,4.8c12.2,0,22-9.4,22-21.1C650.1-134.9,640.4-144.4,628.9-144.4z"/>
<path class="st5" d="M756.4-72.4h-57.9c-13.9,0-25.2-11.3-25.2-25.2v-57.9c0-13.9,11.3-25.2,25.2-25.2h57.9
	c13.9,0,25.2,11.3,25.2,25.2v57.9C781.6-83.8,770.3-72.4,756.4-72.4z"/>
<path class="st2" d="M751.1-144.4c-10.3,0-15.1,3.9-21.2,9.9l8.3,8.5c5.4-5.2,7.2-6.5,12.9-6.5c4.4,0,9.3,3.7,9.3,8.9
	c0,5.1-4.6,9.2-10.2,9.2c-2.3,0-4.9-0.9-6.7-2.3c-1.4-1.1-6.3-5.7-10.4-9.6l0,0c-1.9-1.8-11.5-11.1-14.3-13.3c-3.9-3-9-4.8-14-4.8
	c-12.2,0-22,9.4-22,21.1c0,11.3,9.7,20.8,21.1,20.8c10.3,0,15.1-3.9,21.2-9.9l-8.3-8.5c-5.4,5.2-7.2,6.5-12.9,6.5
	c-4.4,0-9.3-3.7-9.3-8.9c0-5.1,4.6-9.2,10.2-9.2c2.3,0,4.9,0.9,6.7,2.3c1.4,1.1,6.3,5.7,10.4,9.6l0,0c1.9,1.8,11.5,11.1,14.3,13.3
	c3.9,3,9,4.8,14,4.8c12.2,0,22-9.4,22-21.1C772.2-134.9,762.5-144.4,751.1-144.4z"/>
</svg>
