<?xml version="1.0" encoding="utf-8"?>
<!-- Generator: Adobe Illustrator 23.0.6, SVG Export Plug-In . SVG Version: 6.00 Build 0)  -->
<svg version="1.1" id="Layer_1" xmlns="http://www.w3.org/2000/svg" xmlns:xlink="http://www.w3.org/1999/xlink" x="0px" y="0px"
	 viewBox="0 0 478.3 91.9" style="enable-background:new 0 0 478.3 91.9;" xml:space="preserve">
<path d="M0,90.1V4.9h16.4v85.3H0V90.1z M12.1,90.1V76.7h22.2c4,0,7.1-1.2,9.3-3.6s3.3-5.3,3.3-8.6c0-2.3-0.5-4.3-1.5-6.2
	S43,55,41.1,53.9c-1.9-1.1-4.2-1.6-6.9-1.6H12.1V38.9h20.4c3.4,0,6.1-0.8,8.2-2.5s3.1-4.2,3.1-7.6c0-3.5-1-6.1-3.1-7.8
	s-4.8-2.5-8.2-2.5H12.1V4.9h22.3c5.7,0,10.4,1,14.2,3.1s6.7,4.8,8.7,8.1c1.9,3.4,2.9,7,2.9,11c0,4.9-1.5,9-4.4,12.6
	c-3,3.5-7.3,6.1-12.9,7.8l0.7-5.3c6.3,1.8,11.2,4.7,14.6,8.8s5.2,9,5.2,14.7c0,4.5-1.1,8.6-3.3,12.3c-2.2,3.7-5.5,6.6-9.7,8.9
	c-4.2,2.2-9.4,3.3-15.5,3.3H12.1V90.1z"/>
<path d="M99.3,91.4c-5.3,0-10.1-1.3-14.4-4s-7.6-6.3-10.1-10.9c-2.4-4.6-3.6-9.8-3.6-15.5c0-5.8,1.2-11,3.6-15.6s5.8-8.2,10.1-10.9
	c4.3-2.7,9.1-4,14.4-4c4.2,0,8,0.8,11.3,2.5s6,4.1,7.9,7.1c2,3,3.1,6.4,3.2,10.2v21.1c-0.2,3.9-1.2,7.3-3.2,10.3s-4.6,5.4-7.9,7.1
	C107.3,90.5,103.5,91.4,99.3,91.4z M102.2,76.7c4.4,0,8-1.5,10.8-4.4c2.7-3,4.1-6.8,4.1-11.5c0-3.1-0.6-5.8-1.9-8.2
	c-1.3-2.4-3-4.2-5.2-5.6c-2.2-1.3-4.8-2-7.8-2c-2.9,0-5.5,0.7-7.7,2s-4,3.2-5.2,5.6c-1.3,2.4-1.9,5.1-1.9,8.2c0,3.2,0.6,5.9,1.9,8.3
	s3,4.2,5.2,5.6C96.8,76,99.3,76.7,102.2,76.7z M116.3,90.1V74.4l2.5-14.3L116.3,46V31.6h15.8v58.6L116.3,90.1L116.3,90.1z"/>
<path d="M174.2,91.4c-6.1,0-11.6-1.3-16.4-3.9c-4.8-2.6-8.5-6.2-11.3-10.9c-2.8-4.6-4.2-9.9-4.2-15.8c0-5.8,1.4-11,4.1-15.6
	c2.7-4.6,6.4-8.2,11.1-10.9c4.7-2.7,9.9-4.1,15.6-4.1c5.7,0,10.7,1.3,15,3.8s7.7,6,10.2,10.4s3.7,9.4,3.7,15c0,1.1-0.1,2.1-0.2,3.2
	c-0.1,1.1-0.3,2.3-0.7,3.7l-49.2,0.1V54.6l41.8-0.1l-6.4,5c-0.2-3.5-0.8-6.4-1.9-8.7c-1.1-2.3-2.7-4.1-4.7-5.4
	c-2.1-1.3-4.6-1.9-7.6-1.9c-3.2,0-5.9,0.7-8.2,2.1c-2.3,1.4-4.1,3.4-5.4,5.9c-1.3,2.5-1.9,5.6-1.9,9c0,3.6,0.7,6.7,2,9.3
	s3.3,4.7,5.8,6.1s5.4,2.1,8.7,2.1c3,0,5.7-0.5,8.1-1.5c2.4-1,4.5-2.5,6.3-4.5l9.3,9.3c-2.8,3.3-6.3,5.8-10.4,7.5
	C183.3,90.5,178.9,91.4,174.2,91.4z"/>
<path d="M374.5,91.4c-5.4,0-10.3-1.3-14.6-4c-4.3-2.7-7.7-6.3-10.1-10.9c-2.5-4.6-3.7-9.8-3.7-15.5c0-5.8,1.2-11,3.7-15.6
	s5.8-8.2,10.1-10.9c4.2-2.7,9.1-4,14.6-4c4.2,0,8,0.8,11.3,2.5c3.4,1.7,6.1,4.1,8.1,7.1c2.1,3,3.2,6.4,3.3,10.2v20.9
	c-0.2,3.8-1.3,7.2-3.3,10.3c-2,3.1-4.7,5.5-8.1,7.3C382.5,90.5,378.7,91.4,374.5,91.4z M377.2,76.7c3,0,5.6-0.7,7.8-2
	c2.2-1.3,4-3.2,5.2-5.6c1.3-2.4,1.9-5.2,1.9-8.3s-0.6-5.8-1.9-8.2s-3-4.2-5.2-5.6c-2.2-1.3-4.8-2-7.7-2c-3,0-5.6,0.7-7.8,2.1
	c-2.2,1.4-4,3.2-5.2,5.6c-1.3,2.3-1.9,5.1-1.9,8.1c0,3.2,0.6,5.9,1.9,8.3s3,4.2,5.3,5.6C371.8,76,374.3,76.7,377.2,76.7z M407,90.1
	h-15.8V74.4l2.5-14.3L391.1,46V2.5H407V90.1z"/>
<path d="M445.6,91.4c-5.3,0-10.1-1.3-14.4-4s-7.6-6.3-10.1-10.9c-2.4-4.6-3.6-9.8-3.6-15.5c0-5.8,1.2-11,3.6-15.6s5.8-8.2,10.1-10.9
	c4.3-2.7,9.1-4,14.4-4c4.2,0,8,0.8,11.3,2.5s6,4.1,7.9,7.1c2,3,3.1,6.4,3.2,10.2v21.1c-0.2,3.9-1.2,7.3-3.2,10.3s-4.6,5.4-7.9,7.1
	C453.5,90.5,449.8,91.4,445.6,91.4z M448.5,76.7c4.4,0,8-1.5,10.8-4.4c2.7-3,4.1-6.8,4.1-11.5c0-3.1-0.6-5.8-1.9-8.2s-3-4.2-5.2-5.6
	c-2.2-1.3-4.8-2-7.8-2c-2.9,0-5.5,0.7-7.7,2s-4,3.2-5.2,5.6c-1.3,2.4-1.9,5.1-1.9,8.2c0,3.2,0.6,5.9,1.9,8.3s3,4.2,5.2,5.6
	C443,76,445.6,76.7,448.5,76.7z M462.5,90.1V74.4l2.5-14.3L462.5,46V31.6h15.8v58.6L462.5,90.1L462.5,90.1z"/>
<path d="M307.5,32.2c-14.7,0-21.4,5.5-30,14l11.8,12c7.6-7.4,10.2-9.2,18.2-9.2c6.2,0,13.1,5.2,13.1,12.6c0,7.2-6.5,13-14.4,13
	c-3.3,0-6.9-1.2-9.6-3.3c-2-1.5-9-8.1-14.8-13.7l0,0c-2.7-2.6-16.3-15.8-20.2-18.8c-5.6-4.3-12.8-6.7-19.8-6.7
	c-17.2,0-31.3,13.4-31.3,29.9c0,16,13.7,29.5,30,29.5c14.7,0,21.4-5.5,30-14l-11.8-12c-7.6,7.4-10.2,9.2-18.2,9.2
	c-6.2,0-13.1-5.2-13.1-12.6c0-7.2,6.5-13,14.4-13c3.3,0,6.9,1.2,9.5,3.3c2,1.5,9,8.1,14.8,13.7l0,0c2.7,2.6,16.3,15.8,20.2,18.8
	c5.6,4.3,12.8,6.7,19.8,6.7c17.2,0,31.3-13.4,31.3-29.9C337.5,45.6,323.7,32.2,307.5,32.2z"/>
</svg>
